Genre:Adventure | Comedy | Fantasy 
Language:English
IMDb:http://www.imdb.com/title/tt1240982/
Source:Kinopark/IMAGINE Thanks!

Format : MPEG-4
Format profile : Base Media
Codec ID : isom
File size : 1.06 GiB
Duration : 1h 39mn
Overall bit rate : 1 534 Kbps

Video
ID : 1
Format : AVC
Format/Info : Advanced Video Codec
Format profile : High@L4.1
Format settings, CABAC : Yes
Format settings, ReFrames : 3 frames
Codec ID : avc1
Codec ID/Info : Advanced Video Coding
Duration : 1h 39mn
Bit rate mode : Variable
Bit rate : 1 304 Kbps
Maximum bit rate : 5 938 Kbps
Width : 720 pixels
Height : 320 pixels
Display aspect ratio : 2.25:1
Frame rate mode : Constant
Frame rate : 25.000 fps
Color space : YUV
Chroma subsampling : 4:2:0
Bit depth : 8 bits
Scan type : Progressive
Bits/(Pixel*Frame) : 0.226
Stream size : 929 MiB (85%)
Writing library : x264

Audio
ID : 2
Format : AAC
Format/Info : Advanced Audio Codec
Format version : Version 4
Format profile : LC
Format settings, SBR : No
Codec ID : 40
Duration : 1h 39mn
Bit rate mode : Variable
Bit rate : 220 Kbps
Maximum bit rate : 262 Kbps
Channel(s) : 2 channels
Channel positions : Front: L R
Sampling rate : 44.1 KHz
Stream size : 156 MiB (14%)


Plot:
When Prince Fabious's bride is kidnapped, he goes on a quest to rescue her... accompanied by his lazy useless brother Thadeous. 

Screens:
 
http://www.pix2links.com/images/96162215759705078421.png 
http://www.pix2links.com/images/40776791787166708315.png 
http://www.pix2links.com/images/06161507105219263102.png 
http://www.pix2links.com/images/03894870058064731910.png 
http://www.pix2links.com/images/37280530671058456191.png

Greets:

INK,CRYS,IMAGINE,LKRG,FXG,3Li,FLAWL3SS,TA,iLLUSiON,ViSiON,DTRG SAFCuk009,LU,TheFalcon007,MYSTiC,PrisM,Noir,WBZ,LAP,Rx,Kingdom,SAFCuk009+Fabreezy,HDLiTE,TWiZTED,ExtraTorrentRG.ELEKTRI4KA,MAGNAT,CM8
And to all the other p2p grps past and present.